<svg xmlns="http://www.w3.org/2000/svg" viewBox="0 0 668.09 158.37"><defs><style>.cls-1{fill:#247ba0;}</style></defs><title>logo</title><g id="レイヤー_2" data-name="レイヤー 2"><g id="レイヤー_1-2" data-name="レイヤー 1"><path d="M146.73,60.7q0-3.88-.08-8.26a19,19,0,0,1,1.43-7.93,8.59,8.59,0,0,1,4.47-4.64,8.76,8.76,0,0,1,6.15-.59,10.16,10.16,0,0,1,4.72,1.85,8.08,8.08,0,0,1,2.44,3.12,12.59,12.59,0,0,1,.93,4q.17,2.28.34,4.47a14.94,14.94,0,0,1,4.22-4.89,27.49,27.49,0,0,1,5.23-3,26.15,26.15,0,0,1,5.14-1.69,20.1,20.1,0,0,1,3.79-.51,31.36,31.36,0,0,1,12.73,2.78,28.35,28.35,0,0,1,10.54,7.84,24.81,24.81,0,0,1,3.63,6.32,35.09,35.09,0,0,1,1.86,6.83A61.11,61.11,0,0,1,215,73.6q.17,3.63.34,7.33a136.42,136.42,0,0,1,0,21.41q-.17,2.19-.17,5.06a37.87,37.87,0,0,1-.42,5.65,15.65,15.65,0,0,1-1.52,4.89,4.94,4.94,0,0,1-3.63,2.61,14.54,14.54,0,0,1-5.82.42,7.42,7.42,0,0,1-3.63-1.6,7.17,7.17,0,0,1-2-3,31.91,31.91,0,0,1-1.18-4.22q-.34-1.85-.59-4.3t-.34-5q-.09-2.53-.17-5t-.08-4.47q0-3.2-.17-7.08t0-7.25q0-7.92-4.13-12.06t-11.21-3.46a17,17,0,0,0-9.44,4.3A11.5,11.5,0,0,0,167,77.23v4q0,1.86-.08,3.71t-.08,4v16.61a27.9,27.9,0,0,1-1.52,10,8.88,8.88,0,0,1-4.55,5.56q-3.21,1.52-7.59-.84a7.78,7.78,0,0,1-3-2.78,15.21,15.21,0,0,1-1.69-3.79,20.33,20.33,0,0,1-.76-4.13q-.17-2.11-.34-4-.51-5.56-.59-10.37T146.73,85Z"/><path d="M314.26,45.7a8.22,8.22,0,0,1,1.35,5.06,15.71,15.71,0,0,1-1.35,6.74q-.34.85-.93,2.19t-1.18,2.87q-.59,1.52-1.26,2.87l-1,2-.34.84q-2.36,5.23-4.55,10.12t-4.89,10.45q-2.7,5.4-5.14,10.54t-4.81,10q-.68,1.35-1.18,2.61a16.61,16.61,0,0,1-1.35,2.61L279.52,132q-2.19,4.38-4.13,8.6t-4.3,8.43c-.34.56-.65,1.1-.93,1.6a13.61,13.61,0,0,0-.76,1.6,15.79,15.79,0,0,1-3.46,4,8.2,8.2,0,0,1-4.81,2.11,10.26,10.26,0,0,1-7.92-2.7,8.44,8.44,0,0,1-3.2-3.37,9.59,9.59,0,0,1-.67-3.88c.11-.67.2-1.32.25-1.94a16.2,16.2,0,0,1,.25-1.77,9.8,9.8,0,0,0,.51-1.69,3.68,3.68,0,0,1,.51-1.35c.34-.9.62-1.35.84-1.35L264,113.65q-.85-1.85-1.69-3.79l-1.52-3.46-4.64-11q-2.45-5.82-5-11.63T246,72.34q-2.7-5.56-5.4-10.62a30.94,30.94,0,0,1-1.86-3.63,26.25,26.25,0,0,1-1.35-3.88,11.71,11.71,0,0,1-.34-4,8.53,8.53,0,0,1,1.52-4,8.19,8.19,0,0,1,3.54-3.63,9.49,9.49,0,0,1,4.64-1,12,12,0,0,1,4.64,1.1,9.62,9.62,0,0,1,3.54,2.7,24.67,24.67,0,0,1,4.55,6.74q1.68,3.71,3.2,7.59,3.2,6.75,6.58,14.16T276,88.36l8.77-18.55q1.35-2.7,2.44-5.23t2.28-4.89q1.35-2.87,2.61-5.9a32.56,32.56,0,0,1,3-5.56,10.8,10.8,0,0,1,.67-1.18,11.26,11.26,0,0,0,.67-1.18,30.42,30.42,0,0,1,2.7-3.2q.84-.67,1.43-1.1a3.7,3.7,0,0,1,1.43-.59,11.66,11.66,0,0,1,2.28-.42,8.82,8.82,0,0,1,2.11.08,39.26,39.26,0,0,1,4,1.52A7.44,7.44,0,0,1,314.26,45.7Z"/><path d="M406,80.77q-.34,5.56-.67,11.21a53.11,53.11,0,0,1-1.77,10.88,30.32,30.32,0,0,1-4.38,9.44,20.55,20.55,0,0,1-8.35,6.74,36.19,36.19,0,0,1-10.12,3.29,53.93,53.93,0,0,1-10.79.76,43.26,43.26,0,0,1-10.45-1.6,35.09,35.09,0,0,1-9.11-4,20.41,20.41,0,0,1-6.58-6.58,36.32,36.32,0,0,1-4-8.77,51,51,0,0,1-1.94-9.78q-.51-5.06-.67-9.44a194.8,194.8,0,0,1,0-22.93v-5a35.36,35.36,0,0,1,.42-5.48,19.62,19.62,0,0,1,1.43-5,7,7,0,0,1,3.37-3.46q5.06-2.7,9.36-.34t5.14,9.78a58.84,58.84,0,0,1,.42,8.6,81.88,81.88,0,0,0,.25,8.6q.17,5.74.34,12.39a40.1,40.1,0,0,0,1.94,11.89,14.33,14.33,0,0,0,5.9,7.84q4.13,2.62,12.39.25,3.88-1.18,5.14-5.9t1.26-14q0-4-.17-8.94t-.17-9.7q0-4.81.25-8.94a28.68,28.68,0,0,1,.93-6.32,7.24,7.24,0,0,1,3.54-4.55,12.25,12.25,0,0,1,5.73-1.6,11.91,11.91,0,0,1,5.73,1.26,7.25,7.25,0,0,1,3.71,4.38,27.85,27.85,0,0,1,1.43,6.83q.42,4.13.59,8.94t.08,9.78Q406.13,76.39,406,80.77Z"/><path d="M467.67,91.22a28.75,28.75,0,0,0-7.17-3.2q-4-1.18-8.09-2.19t-8-2.28a24.74,24.74,0,0,1-7.08-3.63q-6.92-5.22-8-12.9A23.91,23.91,0,0,1,432.6,51.6a20.21,20.21,0,0,1,6.24-6.66,32.11,32.11,0,0,1,8.52-4,36.46,36.46,0,0,1,9.53-1.6,49.94,49.94,0,0,1,9.27.51,58.78,58.78,0,0,1,6.07,1.43,29.79,29.79,0,0,1,6,2.44,22.07,22.07,0,0,1,5.06,3.79,13.2,13.2,0,0,1,3.29,5.65,8.4,8.4,0,0,1,.25,4.22,6.86,6.86,0,0,1-1.69,3.37,7.8,7.8,0,0,1-3.2,2,8.45,8.45,0,0,1-4.13.34,21.11,21.11,0,0,1-4.72-1.52q-2.19-1-4.38-2.19a35.78,35.78,0,0,0-4.47-2,13.73,13.73,0,0,0-4.81-.84A11.32,11.32,0,0,0,453,57.84a8.06,8.06,0,0,0-3.46,3.71,5.78,5.78,0,0,0,.17,4.72,9.56,9.56,0,0,0,4.64,4.38,33,33,0,0,0,7.08,2.7l7.67,2q3.79,1,7.42,2.36A22.51,22.51,0,0,1,483,81.44a18.5,18.5,0,0,1,6.83,10.62,22.27,22.27,0,0,1-.76,12,25.9,25.9,0,0,1-18.72,16.52,52.06,52.06,0,0,1-10.54,1,52.78,52.78,0,0,1-11.13-1.18,42.77,42.77,0,0,1-10.45-3.71,27.27,27.27,0,0,1-8.35-6.41,9.43,9.43,0,0,1-2.44-6.15,11.79,11.79,0,0,1,1.35-6.07,7.66,7.66,0,0,1,4.13-3.63q2.7-1,6.07,1.18a47,47,0,0,0,6.41,3.63,44.17,44.17,0,0,0,7.42,2.78,27.18,27.18,0,0,0,7.17,1,11.42,11.42,0,0,0,6-1.52q3.71-2.36,3.88-5.48A5.18,5.18,0,0,0,467.67,91.22Z"/><path d="M577.3,87.68q.16,3.37.17,7t-.17,6.66q-.17,4.55-.51,8.35a23.74,23.74,0,0,1-1.35,6.41,7.49,7.49,0,0,1-3.12,3.88,8.91,8.91,0,0,1-5.82.76,6.88,6.88,0,0,1-5.56-3.71,22.39,22.39,0,0,1-2.28-7.33,45.67,45.67,0,0,1-.42-8.35,63.78,63.78,0,0,0,0-6.58q-.17-3.71-.25-8.52a47.31,47.31,0,0,0-1-9.11,19.37,19.37,0,0,0-3.12-7.34,8,8,0,0,0-6.58-3.2q-5.56-.34-8.52.84a8.4,8.4,0,0,0-4.3,3.46,12.54,12.54,0,0,0-1.6,5.48q-.25,3.2-.76,6.91l-.17,6.58v12.31q0,3-.08,6.32a18.33,18.33,0,0,1-1.1,6,11.2,11.2,0,0,1-3.12,4.55q-2.11,1.86-6.15,1.86-5.06,0-7.5-3.29a13.31,13.31,0,0,1-2.44-8.18v-97c0-.67,0-1.32.08-1.94s.14-1.26.25-1.94a14.35,14.35,0,0,0,.51-1.94,9,9,0,0,1,.51-1.77,4.62,4.62,0,0,1,1.69-2.53A8.84,8.84,0,0,1,516.26,1a5.26,5.26,0,0,1,1.86-.67A17.48,17.48,0,0,1,520,.08Q521,0,522,0a8.93,8.93,0,0,1,4.89,1.52A16.39,16.39,0,0,1,528.74,3a5.27,5.27,0,0,1,1.35,2.11,15.68,15.68,0,0,1,1.35,6.07,18.81,18.81,0,0,1,.25,2.44q.08,1.6.08,3.29t.08,3.29q.08,1.6.08,2.44v.84q.17,5.4.17,11V48.56a45.08,45.08,0,0,1,14.84-2.28,31.31,31.31,0,0,1,13.83,3.12,29.33,29.33,0,0,1,9.53,7.25,26.49,26.49,0,0,1,4.81,8.94A41.38,41.38,0,0,1,576.88,76Q577.13,81.61,577.3,87.68Z"/><path d="M667.81,80.77q-.34,5.56-.67,11.21a53.15,53.15,0,0,1-1.77,10.88A30.34,30.34,0,0,1,661,112.3a20.54,20.54,0,0,1-8.35,6.74,36.18,36.18,0,0,1-10.12,3.29,53.93,53.93,0,0,1-10.79.76,43.26,43.26,0,0,1-10.45-1.6,35.07,35.07,0,0,1-9.1-4,20.41,20.41,0,0,1-6.58-6.58,36.29,36.29,0,0,1-4-8.77,50.87,50.87,0,0,1-1.94-9.78q-.51-5.06-.68-9.44A194.53,194.53,0,0,1,599,60v-5a35.29,35.29,0,0,1,.42-5.48,19.62,19.62,0,0,1,1.43-5,7,7,0,0,1,3.37-3.46q5.06-2.7,9.36-.34t5.14,9.78a58.84,58.84,0,0,1,.42,8.6,81.7,81.7,0,0,0,.25,8.6q.17,5.74.34,12.39a40.08,40.08,0,0,0,1.94,11.89,14.33,14.33,0,0,0,5.9,7.84q4.13,2.62,12.39.25,3.88-1.18,5.14-5.9t1.27-14q0-4-.17-8.94t-.17-9.7q0-4.81.25-8.94a28.72,28.72,0,0,1,.93-6.32,7.24,7.24,0,0,1,3.54-4.55,12.25,12.25,0,0,1,5.73-1.6,11.91,11.91,0,0,1,5.73,1.26A7.25,7.25,0,0,1,666,45.86a27.85,27.85,0,0,1,1.43,6.83q.42,4.13.59,8.94t.08,9.78Q668,76.39,667.81,80.77Z"/><path class="cls-1" d="M125.43,111.77c0,34.64-28.08-23.22-62.72-23.22S0,146.41,0,111.77,28.08,1.14,62.72,1.14,125.43,77.13,125.43,111.77Z"/><circle class="cls-1" cx="62.72" cy="108.55" r="14.74"/></g></g></svg>